<?xml version="1.0" encoding="UTF-8" standalone="no"?>
<!-- Created with Inkscape (http://www.inkscape.org/) -->

<svg
   width="819.25897"
   height="503.58362"
   viewBox="0 0 819.25897 503.58362"
   version="1.1"
   id="svg1"
   xml:space="preserve"
   inkscape:version="1.3.2 (091e20e, 2023-11-25, custom)"
   sodipodi:docname="logo.svg"
   xmlns:inkscape="http://www.inkscape.org/namespaces/inkscape"
   xmlns:sodipodi="http://sodipodi.sourceforge.net/DTD/sodipodi-0.dtd"
   xmlns:xlink="http://www.w3.org/1999/xlink"
   xmlns="http://www.w3.org/2000/svg"
   xmlns:svg="http://www.w3.org/2000/svg"><sodipodi:namedview
     id="namedview1"
     pagecolor="#ffffff"
     bordercolor="#000000"
     borderopacity="0.25"
     inkscape:showpageshadow="2"
     inkscape:pageopacity="0.0"
     inkscape:pagecheckerboard="0"
     inkscape:deskcolor="#d1d1d1"
     inkscape:document-units="px"
     inkscape:zoom="0.18780788"
     inkscape:cx="-157.07541"
     inkscape:cy="673.56066"
     inkscape:window-width="1920"
     inkscape:window-height="1111"
     inkscape:window-x="-9"
     inkscape:window-y="-9"
     inkscape:window-maximized="1"
     inkscape:current-layer="layer1" /><defs
     id="defs1"><linearGradient
       id="linearGradient28"
       inkscape:collect="always"><stop
         style="stop-color:#8d6b0c;stop-opacity:1;"
         offset="0"
         id="stop27" /><stop
         style="stop-color:#e7b51e;stop-opacity:0;"
         offset="1"
         id="stop28" /></linearGradient><linearGradient
       id="linearGradient24"
       inkscape:collect="always"><stop
         style="stop-color:#d7a817;stop-opacity:1;"
         offset="0"
         id="stop25" /><stop
         style="stop-color:#3e340d;stop-opacity:0;"
         offset="1"
         id="stop26" /></linearGradient><linearGradient
       inkscape:collect="always"
       xlink:href="#linearGradient28"
       id="linearGradient27"
       x1="428.69183"
       y1="947.18848"
       x2="954.49512"
       y2="947.18848"
       gradientUnits="userSpaceOnUse" /><linearGradient
       inkscape:collect="always"
       xlink:href="#linearGradient24"
       id="linearGradient29"
       gradientUnits="userSpaceOnUse"
       x1="136.50491"
       y1="957.50494"
       x2="505.89832"
       y2="957.50494" /></defs><g
     inkscape:groupmode="layer"
     id="layer2"
     inkscape:label="Layer 2"
     transform="translate(-136.50491,-705.50818)"><path
       style="display:inline;fill:#eecd68;fill-opacity:1;stroke-width:6.44031;paint-order:stroke fill markers"
       d="m 330.12459,1207.3508 31.94754,1.3312 L 507.16721,1063.5869 310.82295,867.24262 417.98033,760.08525 V 705.5082 l -162.4,162.4 195.67869,195.6787 L 345.43279,1169.4131 175.0459,999.02623 270.22295,903.84918 244.26557,877.8918 137.77377,984.38361 v 29.95079 z"
       id="path1"
       inkscape:export-filename="logo.svg"
       inkscape:export-xdpi="96"
       inkscape:export-ydpi="96" /><path
       style="fill:#eecd68;fill-opacity:1;stroke-width:6.44031;paint-order:stroke fill markers"
       d="M 429.96066,772.06557 810.00328,1152.1082 955.76393,1006.3475 V 977.0623 L 762.74754,784.0459 H 729.46885 L 624.3082,889.20656 650.26557,915.16393 746.1082,819.32131 917.16066,990.37377 811.33443,1096.2 456.58361,741.44918 Z"
       id="path2" /><path
       style="opacity:1;fill:url(#linearGradient29);fill-opacity:1;stroke-width:6.44031;paint-order:stroke fill markers"
       d="m 328.85572,1207.7606 31.9476,1.3312 145.095,-145.0951 -196.3442,-196.34425 107.1574,-107.15737 v -54.57705 l -162.40004,162.4 195.67874,195.67867 -105.8263,105.8262 -170.38687,-170.38684 95.17705,-95.17705 -25.95738,-25.95738 -106.4918,106.49181 v 29.95076 z"
       id="path1-4" /><path
       style="opacity:1;fill:url(#linearGradient27);fill-opacity:1;stroke-width:6.44031;paint-order:stroke fill markers"
       d="m 428.69182,772.4754 380.0426,380.0426 145.7607,-145.7607 v -29.28517 l -193.0164,-193.0164 h -33.2787 l -105.1607,105.16066 25.9574,25.95737 95.8426,-95.84262 171.0525,171.05246 -105.8262,105.8262 -354.7509,-354.75079 z"
       id="path2-0" /></g></svg>
